<svg data-name="Layer 2" xmlns="http://www.w3.org/2000/svg" viewBox="0 0 518.39 100.43"><path d="M424.86 12c-.18-1.23-.37-2.46-.54-3.75-.21-1.59-.41-2.44-2.33-2.83-2.01-.41-4.02-.84-6.04-1.26l-2.96-.63c-1.45-.31-2.91-.6-4.36-.9-3.1-.64-6.31-1.29-9.44-2.01-4.67-1.06-9.61-.75-15.1.95-4.04 1.25-8.16 2.43-12.15 3.57-1.94.55-3.87 1.11-5.81 1.67-1.84.54-2.67.78-3.38 1-.88.26-1.6.48-3.86 1.13-.62.18-5.86 1.49-6.38 1.57-3.16.39-5.76 2.29-7.75 5.66-3.62 6.13-3.54 15.26.19 21.25.11.18.23.34.35.5-.01.02-.02.04-.03.05-.41.66-.8 1.28-1.17 1.95-.98 1.81-1.65 3.98-2.04 6.64-.03.23-.08.45-.12.67l-.07.38-.02 3.73.04.33c.11.5.21 1.01.31 1.52.24 1.23.48 2.5.91 3.68.47 1.3 1.09 2.47 1.69 3.6l.39.75c-1.7 2.38-2.74 5.34-3.19 9.01 0 .05-.02.09-.04.14l-.06.23-.04 3.82.08.54c.03.13.06.26.07.39.75 5.53 2.8 9.51 6.09 11.84 1.14.8 2.31 1.36 3.45 1.89l.62.3c4.98 2.39 9.96 4.77 14.95 7.15l6.35 3.03c1.23.59 2.48.88 3.75.88.91 0 1.83-.15 2.75-.46 2.92-.97 5.88-2 8.74-3 1.65-.57 3.29-1.15 4.94-1.71 2.38-.82 4.76-1.63 7.14-2.44 2.24-.76 4.48-1.52 6.73-2.29 2.77-.95 5.54-1.91 8.31-2.88l7.51-2.62-.4-2.47c-.14-.9-.28-1.75-.44-2.59-.3-1.59-1.04-2.82-2.08-3.47-.8-.5-1.75-.65-2.68-.41-.38.1-.76.24-1.14.38-.15.06-.31.11-.47.17l-6.79 2.32c-4.53 1.54-9.05 3.09-13.57 4.64-1.28.44-2.57.88-3.85 1.31-3.74 1.27-7.61 2.58-11.41 3.99-2.43.9-4.51.8-6.56-.32-.99-.54-2-1.01-2.98-1.46-.39-.18-.79-.37-1.18-.55l-3.75-1.79c-2.45-1.17-4.9-2.34-7.35-3.52-.56-.27-1.13-.54-1.69-.8-1.65-.78-3.35-1.58-4.96-2.5-1.49-.85-2.66-4.07-1.97-7.1.38-1.71 1.21-3.06 2.21-3.61.48-.26.95-.31 1.43-.13.68.25 1.37.58 2.1.94l1.69.8c5.31 2.52 10.63 5.03 15.94 7.56 1.88.89 3.69 1.12 5.4.66 2.14-.58 4.28-1.31 6.35-2.01l1.07-.37c1.97-.67 3.94-1.36 5.9-2.04 1.61-.56 3.22-1.12 4.84-1.68 4.33-1.48 8.67-2.96 13-4.45l10.23-3.5c.43-.15.87-.32 1.31-.49l1.77-.68-.37-2.33c-.13-.83-.25-1.63-.4-2.43-.42-2.3-1.43-3.33-2.21-3.8-.87-.52-1.87-.61-2.9-.27-1.42.47-2.83.96-4.24 1.46-.7.24-1.39.49-2.09.73l-2.65.92c-3.94 1.36-7.89 2.73-11.83 4.08l-8.43 2.89c-2.93 1.01-5.87 2.01-8.8 3.02-1.43.49-2.65.49-3.73.02-2.28-1-4.6-2.11-6.84-3.19l-1.55-.74c-2.1-1-4.2-2.01-6.29-3.02-2.84-1.37-5.69-2.73-8.53-4.08-1.01-.48-1.83-1.67-2.25-3.28-.61-2.33-.25-4.92.92-6.59 1.02-1.46 1.96-1.72 3.47-.97 2.01 1.01 4.03 1.98 6.05 2.95 1.1.53 2.2 1.06 3.29 1.59 3.21 1.55 6.52 3.15 9.82 4.6 1.23.54 3.09 1.1 5.02.68 2.31-.5 4.58-1.29 6.78-2.05.53-.18 1.06-.37 1.59-.55 4.95-1.68 9.89-3.38 14.84-5.08l3.65-1.26c5.02-1.73 10.03-3.46 15.04-5.19.37-.13.74-.27 1.13-.42l1.72-.64-.19-1.21-.18-1.21c-.13-.89-.25-1.74-.42-2.59-.37-1.75-1.1-2.95-2.19-3.58-.85-.49-1.85-.58-2.88-.24-1.8.59-3.6 1.2-5.39 1.82l-16.48 5.69c-5.35 1.85-10.69 3.69-16.04 5.52-1.55.53-2.94.51-4.23-.07-1.63-.73-3.29-1.54-4.9-2.32-.75-.37-1.51-.73-2.26-1.1l-2.83-1.35c-1.54-.73-3.08-1.46-4.61-2.21l-1.85-.89c-2.22-1.07-4.52-2.17-6.76-3.32-1.04-.54-2.18-2.66-2.19-5.15-.02-2.46.85-4.6 2.22-5.46.68-.43 1.42-.46 2.18-.08.71.35 1.42.71 2.12 1.08.52.27 1.04.54 1.56.8 1 .5 2 1 3.01 1.49 2.15 1.06 4.38 2.16 6.53 3.34 2.57 1.43 5.36 2.13 8.51 2.14 3.42-.01 6.62-.9 9.3-1.79 2.22-.74 4.43-1.49 6.65-2.24 4.62-1.56 9.39-3.17 14.09-4.69 4.09-1.32 8.27-2.59 12.31-3.82 1.83-.56 3.66-1.11 5.48-1.67l1.06-.33V13.8l-.25-1.82ZM0 96.3V4.13h33.02c26.26 0 45.5 17.03 45.5 46.15S59.15 96.3 32.89 96.3H0Zm32.24-16.64c15.08 0 27.69-9.36 27.69-29.38S47.45 20.77 32.37 20.77H17.94v58.89h14.3ZM88.56 96.3V4.13h57.72v16.9H106.5v21.06h36.01v15.99H106.5V79.4h39.78v16.9H88.56ZM223.6 4.13h18.98L208.39 96.3h-18.46L155.87 4.13h19.63l24.05 68.51L223.6 4.13Zm28.56 92.17V4.13h33.02c26.26 0 45.5 17.03 45.5 46.15S311.31 96.3 285.05 96.3h-32.89Zm32.24-16.64c15.08 0 27.69-9.36 27.69-29.38s-12.48-29.51-27.56-29.51H270.1v58.89h14.3Zm203.7-29.38 30.29 46.02h-21.71l-19.89-31.85-20.02 31.85h-21.06L466 50.15 435.84 4.13h21.58l19.76 31.85 20.15-31.85h20.93L488.1 50.28Z" style="fill:#09c6f0" data-name="Layer 1"/></svg>